<svg width="16" height="16" viewBox="0 0 16 16" fill="none" xmlns="http://www.w3.org/2000/svg">
<g clip-path="url(#clip0_1_3250)">
<path d="M10.0001 12H6.66675" stroke="currentColor" stroke-width="1.33333" stroke-linecap="round" stroke-linejoin="round"/>
<path d="M12.0001 9.33337H6.66675" stroke="currentColor" stroke-width="1.33333" stroke-linecap="round" stroke-linejoin="round"/>
<path d="M2.66659 14.6667H13.3333C13.6869 14.6667 14.026 14.5262 14.2761 14.2762C14.5261 14.0261 14.6666 13.687 14.6666 13.3334V2.66671C14.6666 2.31309 14.5261 1.97395 14.2761 1.7239C14.026 1.47385 13.6869 1.33337 13.3333 1.33337H5.33325C4.97963 1.33337 4.64049 1.47385 4.39044 1.7239C4.14039 1.97395 3.99992 2.31309 3.99992 2.66671V13.3334C3.99992 13.687 3.85944 14.0261 3.60939 14.2762C3.35935 14.5262 3.02021 14.6667 2.66659 14.6667ZM2.66659 14.6667C2.31296 14.6667 1.97382 14.5262 1.72378 14.2762C1.47373 14.0261 1.33325 13.687 1.33325 13.3334V7.33337C1.33325 6.97975 1.47373 6.64061 1.72378 6.39057C1.97382 6.14052 2.31296 6.00004 2.66659 6.00004H3.99992" stroke="currentColor" stroke-width="1.33333" stroke-linecap="round" stroke-linejoin="round"/>
<path d="M11.3334 4H7.33341C6.96522 4 6.66675 4.29848 6.66675 4.66667V6C6.66675 6.36819 6.96522 6.66667 7.33341 6.66667H11.3334C11.7016 6.66667 12.0001 6.36819 12.0001 6V4.66667C12.0001 4.29848 11.7016 4 11.3334 4Z" stroke="#9498A2" stroke-width="1.33333" stroke-linecap="round" stroke-linejoin="round"/>
</g>
<defs>
<clipPath id="clip0_1_3250">
<rect width="16" height="16" fill="white"/>
</clipPath>
</defs>
</svg>
