<svg width="28" height="28" viewBox="0 0 28 28" fill="none" xmlns="http://www.w3.org/2000/svg">
<rect width="28" height="28" fill="#EE343B"/>
<path d="M20.2734 9.52344C20.1276 9.53906 19.9193 9.56771 19.6484 9.60938C19.3776 9.65104 19.1328 9.7526 18.9141 9.91406C18.7214 10.0547 18.5833 10.2969 18.5 10.6406C18.4219 10.9792 18.3828 11.4792 18.3828 12.1406V20.0625H16.9922L10.0859 11.4922V16.6953C10.0859 17.3411 10.1276 17.8333 10.2109 18.1719C10.2995 18.5052 10.4401 18.75 10.6328 18.9062C10.7734 19.0208 10.9974 19.1224 11.3047 19.2109C11.612 19.2995 11.8568 19.3594 12.0391 19.3906V20H7.27344V19.3906C7.47656 19.375 7.70833 19.3385 7.96875 19.2812C8.23438 19.2188 8.45573 19.125 8.63281 19C8.83594 18.849 8.97396 18.6224 9.04688 18.3203C9.125 18.013 9.16406 17.5 9.16406 16.7812V11.5312C9.16406 11.2708 9.1224 11.026 9.03906 10.7969C8.96094 10.5625 8.83594 10.362 8.66406 10.1953C8.48177 10.0182 8.27083 9.88021 8.03125 9.78125C7.79688 9.67708 7.52865 9.59635 7.22656 9.53906V8.91406H11.3984L17.4609 16.4141V12.2188C17.4609 11.5521 17.4167 11.0573 17.3281 10.7344C17.2396 10.4062 17.099 10.1641 16.9062 10.0078C16.7552 9.88802 16.5312 9.78646 16.2344 9.70312C15.9375 9.61458 15.6979 9.55469 15.5156 9.52344V8.91406H20.2734V9.52344Z" fill="#FCFCFC"/>
</svg>
